<?xml version="1.0" standalone="no"?>
<!DOCTYPE svg PUBLIC "-//W3C//DTD SVG 20010904//EN"
 "http://www.w3.org/TR/2001/REC-SVG-20010904/DTD/svg10.dtd">
<svg version="1.0" xmlns="http://www.w3.org/2000/svg"
 width="254.000000pt" height="254.000000pt" viewBox="0 0 254.000000 254.000000"
 preserveAspectRatio="xMidYMid meet">
<metadata>
Created by potrace 1.11, written by Peter Selinger 2001-2013
</metadata>
<g transform="translate(0.000000,254.000000) scale(0.100000,-0.100000)"
fill="#000000" stroke="none">
<path d="M1368 1965 c-2 -1 -28 -5 -58 -8 -71 -7 -187 -47 -258 -89 -63 -38
-186 -154 -225 -213 -52 -80 -104 -211 -84 -216 4 -1 39 4 78 11 57 11 74 19
90 41 10 15 19 30 19 34 0 12 58 90 96 129 158 158 411 201 614 103 35 -17 89
-51 118 -75 54 -44 55 -44 150 -49 l95 -5 -23 38 c-74 118 -234 231 -392 274
-61 16 -210 33 -220 25z"/>
<path d="M1677 1555 c-1 -1 -45 -5 -97 -9 -128 -8 -240 -32 -476 -104 -207
-63 -300 -87 -387 -99 -68 -10 -262 -9 -356 1 -66 6 -98 12 -198 32 -12 2 -50
13 -84 24 -35 10 -65 18 -67 16 -6 -7 144 -114 210 -149 113 -61 290 -117 415
-133 203 -24 339 -2 613 102 278 106 366 130 522 138 46 2 79 3 73 0 -5 -2
-50 -15 -100 -29 -49 -14 -99 -29 -110 -34 -11 -5 -110 -49 -220 -99 -211 -94
-279 -120 -385 -148 -95 -24 -301 -24 -445 1 -16 3 -43 8 -60 11 l-30 5 30
-26 c50 -42 175 -114 255 -144 102 -40 167 -50 285 -47 186 5 345 69 605 241
74 49 182 113 240 142 100 51 275 115 349 128 19 3 37 8 40 10 4 2 27 6 51 9
25 3 56 8 69 10 13 3 41 6 63 8 22 1 41 5 43 9 7 10 -241 77 -345 93 -19 3
-57 8 -85 11 -27 4 -61 8 -75 11 -14 2 -79 7 -145 10 -66 3 -137 6 -158 8 -20
1 -38 2 -40 1z"/>
<path d="M2021 1206 l-74 -32 -26 -74 c-46 -129 -126 -229 -236 -295 -127 -76
-295 -97 -430 -53 -58 18 -93 22 -204 23 l-133 0 48 -42 c66 -58 192 -123 269
-139 86 -17 120 -20 190 -19 300 7 563 208 649 495 16 51 33 171 25 169 -2 0
-37 -15 -78 -33z"/>
</g>
</svg>
